# xmcd
# 
# Track frame offsets:
#     150
#     17980
#     30357
#     44518
#     69195
#     86866
#     103698
#     122652
#     145254
#     161470
#     178220
#     192457
#     212294
#     233682
#     263079
# 
# Disc length: 3759
# 
# Revision: 0
# Processed by: cddbd v1.5.2PL0 Copyright (c) Steve Scherf et al.
# Submitted via: fre:ac v1.0.31
# 
DISCID=ca0ead0f
DTITLE=Various Artist - 井上陽水トリビュート
DYEAR=2019
DGENRE=
TTITLE0=ヨルシカ - Make-up Shadow
TTITLE1=槇原敬之 - 夢の中へ
TTITLE2=King Gnu - 飾りじゃないのよ 涙は
TTITLE3=椎名林檎 - ワインレッドの心
TTITLE4=宇多田ヒカル - 少年時代
TTITLE5=ウルフルズ - 女神
TTITLE6=田島貴男(ORIGINAL LOVE) - クレイジーラブ
TTITLE7=福山雅治 - リバーサイド ホテル
TTITLE8=細野晴臣 - Pi Po Pa
TTITLE9=iri - 東へ西へ
TTITLE10=SIX LOUNGE - Just Fit
TTITLE11=斉藤和義 - カナリア
TTITLE12=オルケスタ・デ・ラ・ルス - ダンスはうまく踊れない
TTITLE13=ACIDMAN - 傘がない
TTITLE14=KREVA - 最後のニュース
EXTD=井上陽水デビュー50周年 豪華アーティスト参加のトリビュートアルバム
EXTT0=
EXTT1=
EXTT2=
EXTT3=
EXTT4=
EXTT5=
EXTT6=
EXTT7=
EXTT8=
EXTT9=
EXTT10=
EXTT11=
EXTT12=
EXTT13=
EXTT14=
PLAYORDER=
